<svg xmlns="http://www.w3.org/2000/svg" width="186" height="34" viewBox="0 0 186 34">
  <path fill="#000002" fill-rule="evenodd"
        d="M59.9232303,26.1133821 L59.9232303,24.4921626 L61.4933135,24.4921626 L61.4933135,10.4966016 L59.9232303,10.4966016 L59.9232303,8.92790244 L66.9204785,8.92790244 L66.9204785,24.4921626 L68.515159,24.4921626 L68.515159,26.1133821 L59.9232303,26.1133821 Z M142.302437,24.0543089 L142.224776,24.0543089 C141.222642,25.4693171 139.883884,26.4221463 137.826829,26.4221463 C135.022181,26.4221463 133.27356,24.0277724 133.27356,21.1731545 C133.27356,17.7269919 135.716987,15.5377236 139.626579,15.5377236 C141.222642,15.5377236 142.071111,15.9006667 142.071111,15.9006667 L142.071111,14.8193008 C142.071111,12.735626 140.785141,11.6277236 138.906624,11.6277236 C136.30981,11.6277236 134.970776,13.6353821 134.970776,13.6353821 L134.020048,12.478 C135.743519,9.80305691 138.391462,8.59260163 140.862802,8.59260163 C145.029147,8.59260163 147.497724,11.0629919 147.497724,14.8193008 L147.497724,24.4921626 L149.247727,24.4921626 L149.247727,26.1133821 L142.302437,26.1133821 L142.302437,24.0543089 Z M142.071111,17.5965203 C141.916065,17.4431057 141.582758,17.2382764 140.887676,17.2382764 C139.268122,17.2382764 138.906624,18.8332358 138.906624,20.4796098 C138.906624,22.0994472 139.396912,23.4124553 140.785141,23.4124553 C141.453967,23.4124553 141.864936,23.1282927 142.071111,22.8966504 L142.071111,17.5965203 Z M156.579388,24.4921626 L158.687296,24.4921626 L158.687296,26.1133821 L151.151117,26.1133821 L151.151117,4.14108943 L149.274259,4.14108943 L149.274259,2.57239024 L156.579388,2.57239024 L156.579388,24.4921626 Z M56.2319733,10.4966016 L56.2319733,23.2054146 C56.2319733,24.0805691 56.797159,24.2859512 57.3380238,24.2859512 C57.8520802,24.2859512 58.3407103,24.1071057 58.3407103,24.1071057 L58.3407103,25.6760813 C58.3407103,25.6760813 57.312321,26.317935 55.0225587,26.317935 C52.3472541,26.317935 50.778,25.0054797 50.778,22.2282602 L50.778,10.4966016 L48.9514413,10.4966016 L48.9514413,9.33894309 C50.9844517,7.71772358 53.3510461,5.86652033 55.2281813,4.29643902 L56.2319733,4.29643902 L56.2319733,8.92790244 L58.3407103,8.92790244 L58.3407103,10.4966016 L56.2319733,10.4966016 Z M60.9270223,4.37245528 C60.9270223,5.89139837 62.2903774,6.89536585 64.2451738,6.89536585 C66.1999703,6.89536585 67.5636018,5.89139837 67.5636018,4.37245528 C67.5636018,2.85655285 66.1999703,1.85258537 64.2451738,1.85258537 C62.2903774,1.85258537 60.9270223,2.85655285 60.9270223,4.37245528 L60.9270223,4.37245528 Z M41.4663923,14.3305854 C41.4663923,12.7867642 40.9774859,11.5779675 39.6395572,11.5779675 C38.3024577,11.5779675 37.7615929,12.7867642 37.7615929,14.3305854 L37.7615929,24.4921626 L39.330847,24.4921626 L39.330847,26.1133821 L30.739471,26.1133821 L30.739471,24.4921626 L32.3344279,24.4921626 L32.3344279,10.4966016 L30.739471,10.4966016 L30.739471,8.92790244 L37.504841,8.92790244 L37.504841,11.5517073 L37.5816731,11.5517073 C38.2245201,10.1101626 39.7172184,8.59260163 42.1092392,8.59260163 C44.6300505,8.59260163 46.1738782,10.1366992 46.6625082,12.1692358 C46.8424279,12.9667154 46.8935572,14.2791707 46.8935572,14.9464553 L46.8935572,24.4921626 L48.9514413,24.4921626 L48.9514413,26.1133821 L41.4663923,26.1133821 L41.4663923,14.3305854 Z M12.0126152,17.5205041 C12.0126152,22.7169756 15.2022526,26.9357398 20.6559495,26.9357398 C26.1088172,26.9357398 29.2981783,22.7169756 29.2981783,17.5205041 C29.2981783,12.3226504 26.1088172,8.10388618 20.6559495,8.10388618 C15.2022526,8.10388618 12.0126152,12.3226504 12.0126152,17.5205041 L12.0126152,17.5205041 Z M18.39189,17.4693659 C18.39189,12.220374 18.8810728,9.90533333 20.6559495,9.90533333 C22.4305498,9.90533333 22.9191798,12.220374 22.9191798,17.4693659 C22.9191798,22.7169756 22.4305498,25.0320163 20.6559495,25.0320163 C18.8810728,25.0320163 18.39189,22.7169756 18.39189,17.4693659 L18.39189,17.4693659 Z M94.2251679,16.5928293 C94.2251679,12.0653008 94.5850074,10.3677886 96.1285587,10.3677886 C97.6986419,10.3677886 98.0073522,12.0155447 98.0584814,16.5928293 L94.2251679,16.5928293 Z M102.096588,21.5330569 C101.32578,22.4344715 100.115536,23.1282927 98.3160624,23.1282927 C96.7459792,23.1282927 94.3274264,22.2531382 94.2251679,18.2668455 L103.409091,18.2668455 C103.433964,17.9566992 103.46022,17.3391707 103.46022,17.0304065 C103.46022,12.1954959 101.479168,8.59260163 96.3084785,8.59260163 C91.1129153,8.59260163 88.4630371,12.581935 88.4630371,17.5453821 C88.4630371,22.5124228 91.1129153,26.4221463 96.3084785,26.4221463 C99.653162,26.4221463 101.763004,24.8523415 102.997845,22.3833333 L102.096588,21.5330569 Z M22.8680505,5.69589543e-14 C22.8680505,5.69589543e-14 27.0092452,4.14108943 28.9137415,6.2778374 L28.9137415,7.8976748 C27.1388648,6.0215935 23.4597682,4.44985366 20.038529,4.44985366 C12.295899,4.44985366 7.43391976,10.2917724 7.43391976,17.5205041 C7.43391976,24.723252 12.0380416,30.5632358 20.038529,30.5632358 C24.0252303,30.5632358 27.2148678,28.6860488 28.9894681,26.7557886 L28.9894681,28.2982276 C26.5717444,31.6186179 22.147266,33.7796911 16.6432689,33.7796911 C6.79079643,33.7796911 1.57100682e-14,26.6266992 1.57100682e-14,17.5205041 C1.57100682e-14,8.41265041 7.53700743,1.28619512 16.6432689,1.28619512 C18.958734,1.28619512 21.0420446,1.67263415 22.8680505,2.31642276 L22.8680505,5.69589543e-14 Z M130.083923,10.4966016 L130.083923,23.2054146 C130.083923,24.0805691 130.650214,24.2859512 131.19025,24.2859512 C131.703753,24.2859512 132.192383,24.1071057 132.192383,24.1071057 L132.192383,25.6760813 C132.192383,25.6760813 131.163994,26.317935 128.873955,26.317935 C126.199756,26.317935 124.629673,25.0054797 124.629673,22.2282602 L124.629673,10.4966016 L122.803944,10.4966016 L122.803944,9.33894309 C124.835848,7.71772358 127.203272,5.86652033 129.080407,4.29643902 L130.083923,4.29643902 L130.083923,8.92790244 L132.707545,8.92790244 L132.707545,10.4966016 L130.083923,10.4966016 Z M80.6178722,14.3305854 C80.6178722,12.7867642 80.1292422,11.5779675 78.7918663,11.5779675 C77.454214,11.5779675 76.9141783,12.7867642 76.9141783,14.3305854 L76.9141783,24.4921626 L78.483156,24.4921626 L78.483156,26.1133821 L69.8912273,26.1133821 L69.8912273,24.4921626 L71.4861842,24.4921626 L71.4861842,10.4966016 L69.8912273,10.4966016 L69.8912273,8.92790244 L76.6565973,8.92790244 L76.6565973,11.5517073 L76.7334294,11.5517073 C77.3762764,10.1101626 78.8689747,8.59260163 81.2609955,8.59260163 C83.7818068,8.59260163 85.3253581,10.1366992 85.8142645,12.1692358 C85.9941842,12.9667154 86.0461426,14.2791707 86.0461426,14.9464553 L86.0461426,24.4921626 L88.1040267,24.4921626 L88.1040267,26.1133821 L80.6178722,26.1133821 L80.6178722,14.3305854 Z M115.318618,14.3305854 C115.318618,12.7867642 114.829988,11.5779675 113.492612,11.5779675 C112.153854,11.5779675 111.613819,12.7867642 111.613819,14.3305854 L111.613819,24.4921626 L113.183902,24.4921626 L113.183902,26.1133821 L104.591144,26.1133821 L104.591144,24.4921626 L106.186101,24.4921626 L106.186101,10.4966016 L104.591144,10.4966016 L104.591144,8.92790244 L111.356514,8.92790244 L111.356514,11.5517073 L111.434175,11.5517073 C112.077851,10.1101626 113.568615,8.59260163 115.960912,8.59260163 C118.483382,8.59260163 120.025275,10.1366992 120.513905,12.1692358 C120.695483,12.9667154 120.746612,14.2791707 120.746612,14.9464553 L120.746612,24.4921626 L122.803944,24.4921626 L122.803944,26.1133821 L115.318618,26.1133821 L115.318618,14.3305854 Z M180.604673,15.2056016 C180.451009,14.6129512 180.21996,13.9442846 180.04004,13.6106423 C180.04004,13.6106423 180.142575,13.5067073 180.348751,13.6352439 C180.553268,13.7643333 181.865494,14.665748 181.865494,14.665748 C182.534596,15.6431789 182.945841,19.6557317 182.972097,21.097 C182.354676,20.8133902 181.479675,20.3243984 180.913384,19.7842683 L180.604673,15.2056016 Z M176.644228,11.4755528 C175.563051,10.2916341 174.663176,9.18539024 173.788174,7.87265854 C174.354465,6.7926748 174.765434,3.93778049 174.507577,2.83153659 C174.405595,2.4965122 173.47974,1.26145528 173.3258,1.08150407 C173.093092,0.850138211 172.34854,0.0015203252 171.9887,0.0015203252 C171.911039,0.0015203252 171.833654,0.0261219512 171.807122,0.0526585366 L171.911039,1.00382927 C170.907523,1.64761789 169.595021,2.52277236 168.412968,3.39626829 C168.412968,3.73156911 168.437841,4.2451626 168.464097,4.42649593 C168.644017,4.58018699 168.850468,4.709 169.081517,4.7866748 C169.543892,4.709 170.984908,4.34909756 171.369621,4.40023577 L169.956519,6.5353252 L168.33503,7.69270732 L166.303125,7.05057724 C166.174335,7.02404065 166.045544,7.05057724 165.969541,7.15285366 L164.477119,8.77407317 C164.399458,8.85036585 164.348605,8.92776423 164.348605,9.10771545 L164.295541,10.9340407 C164.295541,10.9340407 164.270667,11.2179268 164.270667,11.5266911 C164.270667,12.8380407 164.861832,13.4552927 164.861832,13.4552927 L165.839092,12.0402846 C165.710302,11.8354553 165.478977,11.269065 165.428124,11.0117154 C165.428124,10.9605772 165.454656,9.44301626 165.454656,9.44301626 L166.405384,8.74781301 L168.926471,10.523 C168.926471,10.523 169.621553,11.8091951 170.290103,12.5817967 C170.727604,13.1216504 172.913449,14.5880732 173.968094,15.2056016 C174.072011,15.7719919 174.303336,16.6982846 174.483256,17.1856179 L177.570358,20.3506585 L175.742971,22.6391626 C175.100676,23.0521382 174.483256,23.7982033 174.534385,24.4920244 L176.644228,24.4920244 L176.875553,23.2832276 L179.396364,20.479748 C179.525155,20.3243984 179.525155,20.247 179.447494,20.0156341 L178.727815,17.5983171 C179.087654,17.1856179 179.858739,16.1584309 179.858739,14.9217154 C179.858739,12.6843496 177.415312,12.1179593 176.644228,11.4755528 L176.644228,11.4755528 Z M165.274459,6.87034959 C165.197075,6.89522764 163.318281,7.41047967 163.318281,7.41047967 C163.318281,7.41047967 162.444938,7.74384553 162.058843,8.00147154 C161.672471,8.25909756 161.234971,8.6966748 161.210097,8.92776423 L162.882439,9.31420325 C163.138361,9.03031707 163.422198,8.72155285 163.679779,8.51672358 L164.064492,8.33677236 L165.454656,6.9214878 C165.454656,6.9214878 165.401592,6.84408943 165.274459,6.87034959 L165.274459,6.87034959 Z M173.17103,21.3283659 L175.538177,19.0644634 L176.515437,20.0418943 L173.968094,22.2035203 C173.7633,22.4594878 173.608531,22.872187 173.47974,23.1284309 L171.602605,23.1284309 C171.704864,22.4346098 172.682124,21.5594553 173.17103,21.3283659 L173.17103,21.3283659 Z M160.61755,26.1132439 L185.750489,26.1132439 L185.750489,25.2895041 L160.61755,25.2895041 L160.61755,26.1132439 Z"/>
</svg>
