<?xml version="1.0" encoding="UTF-8" standalone="no"?>
<!-- Created with Inkscape (http://www.inkscape.org/) -->

<svg
   xmlns:dc="http://purl.org/dc/elements/1.1/"
   xmlns:cc="http://creativecommons.org/ns#"
   xmlns:rdf="http://www.w3.org/1999/02/22-rdf-syntax-ns#"
   xmlns:svg="http://www.w3.org/2000/svg"
   xmlns="http://www.w3.org/2000/svg"
   xmlns:sodipodi="http://sodipodi.sourceforge.net/DTD/sodipodi-0.dtd"
   xmlns:inkscape="http://www.inkscape.org/namespaces/inkscape"
   width="437.87759mm"
   height="58.091671mm"
   viewBox="0 0 437.87759 58.091671"
   version="1.1"
   id="svg8202"
   inkscape:version="0.92.0 r15299"
   sodipodi:docname="general tire.svg">
  <defs
     id="defs8196" />
  <sodipodi:namedview
     id="base"
     pagecolor="#ffffff"
     bordercolor="#666666"
     borderopacity="1.0"
     inkscape:pageopacity="0.0"
     inkscape:pageshadow="2"
     inkscape:zoom="0.35"
     inkscape:cx="613.70571"
     inkscape:cy="263.14287"
     inkscape:document-units="mm"
     inkscape:current-layer="layer1"
     showgrid="false"
     fit-margin-top="0"
     fit-margin-left="0"
     fit-margin-right="0"
     fit-margin-bottom="0"
     inkscape:window-width="1280"
     inkscape:window-height="744"
     inkscape:window-x="-4"
     inkscape:window-y="-4"
     inkscape:window-maximized="1" />
  <metadata
     id="metadata8199">
    <rdf:RDF>
      <cc:Work
         rdf:about="">
        <dc:format>image/svg+xml</dc:format>
        <dc:type
           rdf:resource="http://purl.org/dc/dcmitype/StillImage" />
        <dc:title></dc:title>
      </cc:Work>
    </rdf:RDF>
  </metadata>
  <g
     inkscape:label="Layer 1"
     inkscape:groupmode="layer"
     id="layer1"
     transform="translate(149.90309,-160.36488)">
    <g
       transform="translate(-533.16781,-376.12983)"
       id="g8169">
      <path
         d="M 432.53933,571.52055 H 444.181 l 2.43028,-6.67921 h -11.64166 l 0.97825,-2.68782 h 13.87475 l 2.89384,-7.94773 h -24.72232 l 0.0116,-0.0321 h -3.175 l -2.90089,7.9696 h 1.86161 l -7.33425,20.1506 h 26.59627 l 2.89278,-7.9477 h -14.43461 l 1.02764,-2.82564"
         style="fill:#c4122e;fill-opacity:1;fill-rule:evenodd;stroke:none;stroke-width:0.03527778"
         id="path8036"
         inkscape:connector-curvature="0" />
      <path
         d="m 475.87314,554.20579 -5.07047,13.92809 c 0,0 0.008,-1.8204 -0.31609,-3.60934 l -1.78929,-10.31875 h -11.06981 l 0.0116,-0.0321 h -3.175 l -2.90089,7.9696 h 1.8616 l -7.33425,20.1506 h 10.19211 l 5.11916,-14.06522 c 0,0 0.055,1.9152 0.36935,3.60938 l 1.82528,10.45584 h 12.24527 l 10.22314,-28.0881 H 475.8731"
         style="fill:#c4122e;fill-opacity:1;fill-rule:evenodd;stroke:none;stroke-width:0.03527778"
         id="path8038"
         inkscape:connector-curvature="0" />
      <path
         d="m 496.01781,571.52055 h 11.64167 l 2.43064,-6.67921 h -11.64167 l 0.97826,-2.68782 h 13.87581 l 2.89277,-7.94773 h -24.70115 l 0.0116,-0.0321 h -3.175 l -2.9009,7.9696 h 1.85138 l -7.33354,20.1506 h 26.58568 l 2.89278,-7.9477 h -14.43637 l 1.02799,-2.82564"
         style="fill:#c4122e;fill-opacity:1;fill-rule:evenodd;stroke:none;stroke-width:0.03527778"
         id="path8040"
         inkscape:connector-curvature="0" />
      <path
         d="m 536.19779,563.88848 c -0.81385,2.23372 -2.33962,2.96478 -5.21687,2.96478 h -3.49286 l 2.16112,-5.93799 h 4.13738 c 2.19145,0 3.15736,0.9211 2.41123,2.97321 z m 3.18382,7.76849 c 3.683,-1.27953 6.88482,-3.56581 8.45009,-7.86303 2.31034,-6.35 0.0399,-9.58815 -9.74055,-9.58815 h -16.96367 l 0.0116,-0.0321 h -3.175 l -2.90089,7.9696 h 1.97944 l -7.33426,20.1506 h 12.15884 l 3.40925,-9.36583 h 1.86372 c 1.57586,0 2.12655,0.54998 2.16959,1.8306 l 0.32702,7.53523 h 12.29748 l -0.39687,-7.07951 c -0.0998,-2.05342 -0.94121,-3.05926 -2.15583,-3.55741"
         style="fill:#c4122e;fill-opacity:1;fill-rule:evenodd;stroke:none;stroke-width:0.03527778"
         id="path8042"
         inkscape:connector-curvature="0" />
      <path
         d="m 566.6397,566.57806 -0.34361,4.66757 h -4.88844 l 3.09598,-4.66757 c 1.13876,-1.73672 2.62854,-4.28696 2.62854,-4.28696 0,0 -0.3683,2.55024 -0.49247,4.28696 z m -3.17888,-12.37227 0.0116,-0.0321 h -3.175 l -2.75414,7.56638 -15.01669,20.55382 h 11.59863 l 2.62819,-4.02234 h 9.08156 l -0.25823,4.02234 h 12.80548 l -0.0624,-28.0881 h -14.859"
         style="fill:#c4122e;fill-opacity:1;fill-rule:evenodd;stroke:none;stroke-width:0.03527778"
         id="path8044"
         inkscape:connector-curvature="0" />
      <path
         d="m 602.97898,554.20579 h -12.1613 l -10.22209,28.0881 h 23.74618 l 2.89595,-7.9477 h -11.59087 l 7.33213,-20.1404"
         style="fill:#c4122e;fill-opacity:1;fill-rule:evenodd;stroke:none;stroke-width:0.03527778"
         id="path8046"
         inkscape:connector-curvature="0" />
      <path
         d="m 417.28557,571.99595 2.35656,-6.47622 h -3.175 l -0.004,0.0106 H 403.202 l -2.34555,6.44483 h 3.76823 l -1.01325,2.78352 h -3.30274 c -4.1486,0 -4.19862,-1.77878 -2.46959,-6.52999 1.6794,-4.61465 3.34751,-6.11748 7.86723,-6.11748 h 11.45141 l 2.87655,-7.9054 h -12.52026 c -11.46086,0 -18.58754,4.75121 -21.96207,14.02288 -3.35843,9.22832 -0.1881,14.06522 10.0149,14.06522 h 16.39232 l 3.74865,-10.29794 h 1.57762"
         style="fill:#c4122e;fill-opacity:1;fill-rule:evenodd;stroke:none;stroke-width:0.03527778"
         id="path8048"
         inkscape:connector-curvature="0" />
      <path
         d="m 646.75906,553.95144 h -27.81229 l -2.88749,7.92727 h 7.97101 l -7.30567,20.066 h 11.87521 l 7.3032,-20.066 h 7.97102 l 2.88501,-7.92727"
         style="fill:#c4122e;fill-opacity:1;fill-rule:evenodd;stroke:none;stroke-width:0.03527778"
         id="path8050"
         inkscape:connector-curvature="0" />
      <path
         d="m 649.57247,553.95144 -10.18787,27.99327 h 11.87308 l 10.18999,-27.99327 h -11.8752"
         style="fill:#c4122e;fill-opacity:1;fill-rule:evenodd;stroke:none;stroke-width:0.03527778"
         id="path8052"
         inkscape:connector-curvature="0" />
      <path
         d="m 682.19136,563.60379 c -0.81104,2.23234 -2.30681,2.96408 -5.12022,2.96408 h -3.41771 l 2.15265,-5.91718 h 4.05271 c 2.13819,0 3.07799,0.91087 2.33257,2.9531 z m 3.05894,7.73677 c 3.60433,-1.27109 6.75252,-3.54584 8.30544,-7.82214 2.30505,-6.32883 0.11783,-9.56698 -9.43786,-9.56698 h -17.74861 l -0.003,0.007 h -2.27647 l -2.89878,7.9696 h 2.27471 l -7.28451,20.01626 h 11.87239 l 3.39901,-9.33482 h 1.82104 c 1.54411,0 2.07328,0.55107 2.11667,1.83127 l 0.26176,7.50355 h 12.02478 l -0.35419,-7.04854 c -0.0695,-2.05271 -0.89005,-3.05812 -2.07256,-3.55561"
         style="fill:#c4122e;fill-opacity:1;fill-rule:evenodd;stroke:none;stroke-width:0.03527778"
         id="path8054"
         inkscape:connector-curvature="0" />
      <path
         d="m 722.65744,561.87871 2.88537,-7.92727 h -25.44339 l -0.003,0.007 h -2.13995 l -2.89878,7.9696 h 2.13748 l -7.28768,20.01626 h 25.98279 l 2.8829,-7.91669 H 704.6663 l 1.0287,-2.82582 h 11.37708 l 2.41688,-6.64556 h -11.37708 l 0.97508,-2.67793 h 13.5703"
         style="fill:#c4122e;fill-opacity:1;fill-rule:evenodd;stroke:none;stroke-width:0.03527778"
         id="path8056"
         inkscape:connector-curvature="0" />
      <path
         d="m 804.98696,582.75927 -35.98333,10.82711 -35.98334,-10.82711 v -45.26456 l 35.98334,10.8271 35.98333,-10.8271 v 45.26456"
         style="fill:#c4122e;fill-opacity:1;fill-rule:evenodd;stroke:none;stroke-width:0.03527778"
         id="path8058"
         inkscape:connector-curvature="0" />
      <path
         d="m 786.99529,581.77506 h -9.99066 v -9.74701 l 9.99066,9.74701 m -12.14261,0 h -17.13089 c -7.91633,-0.19015 -15.70567,-5.57678 -15.70567,-14.26669 0,-8.52985 7.78934,-14.07516 15.70567,-14.26566 l 8.255,8.04368 h -8.255 c -3.35844,0.19015 -6.01133,2.91042 -6.01133,6.22198 0,3.31364 2.65289,6.03388 6.01133,6.22406 h 7.85284 v -2.39145 h -7.29192 c -2.27542,0 -4.1275,-1.71594 -4.1275,-3.83261 0,-2.1167 1.85208,-3.8305 4.1275,-3.8305 h 16.56997 v 18.09719 m 12.14261,-2.78307 -9.99066,-9.74728 v -4.86798 l 9.99066,9.74622 v 4.86904 m 0,-7.65101 -9.99066,-9.74838 -8.5725,-8.34989 h 28.55383 v 8.34989 h -9.99067 v 9.74838 m -13.16566,-10.05459 h -4.99534 l -8.255,-8.04368 h 4.99534 l 8.255,8.04368"
         style="fill:#ffffff;fill-opacity:1;fill-rule:nonzero;stroke:none;stroke-width:0.03527778"
         id="path8060"
         inkscape:connector-curvature="0" />
      <path
         d="m 786.99529,581.77506 h -9.99066 v -9.74701 l 9.99066,9.74701 m -12.14261,0 h -17.13089 c -7.91633,-0.19015 -15.70567,-5.57678 -15.70567,-14.26669 0,-8.52985 7.78934,-14.07516 15.70567,-14.26566 l 8.255,8.04368 h -8.255 c -3.35844,0.19015 -6.01133,2.91042 -6.01133,6.22198 0,3.31364 2.65289,6.03388 6.01133,6.22406 h 7.85284 v -2.39145 h -7.29192 c -2.27542,0 -4.1275,-1.71594 -4.1275,-3.83261 0,-2.1167 1.85208,-3.8305 4.1275,-3.8305 h 16.56997 v 18.09719 m 12.14261,-2.78307 -9.99066,-9.74728 v -4.86798 l 9.99066,9.74622 v 4.86904 m 0,-7.65101 -9.99066,-9.74838 -8.5725,-8.34989 h 28.55383 v 8.34989 h -9.99067 v 9.74838 m -13.16566,-10.05459 h -4.99534 l -8.255,-8.04368 h 4.99534 l 8.255,8.04368"
         style="fill:#ffffff;fill-opacity:1;fill-rule:nonzero;stroke:none;stroke-width:0.03527778"
         id="path8062"
         inkscape:connector-curvature="0" />
      <path
         d="m 811.56274,557.64608 h 1.37583 v -3.44558 h 1.3335 v -0.95815 h -4.0393 v 0.95815 h 1.32997 v 3.44558"
         style="fill:#c4122e;fill-opacity:1;fill-rule:evenodd;stroke:none;stroke-width:0.03527778"
         id="path8064"
         inkscape:connector-curvature="0" />
      <path
         d="m 814.72363,557.64608 h 1.21003 v -1.95898 c 0,-0.45155 -0.0212,-1.00153 -0.0212,-1.00153 0,0 0.15522,0.57185 0.27517,0.97896 l 0.67027,1.98155 h 1.07245 l 0.67028,-1.98155 c 0.11994,-0.39688 0.27164,-0.97896 0.27164,-0.97896 0,0 -0.0317,0.59302 -0.0317,1.00153 v 1.95898 h 1.30175 v -4.40373 h -1.74273 l -0.75847,2.41053 c -0.10936,0.32033 -0.20814,0.79375 -0.20814,0.79375 0,0 -0.11289,-0.47342 -0.21166,-0.79375 l -0.75848,-2.41053 h -1.73919 v 4.40373"
         style="fill:#c4122e;fill-opacity:1;fill-rule:evenodd;stroke:none;stroke-width:0.03527778"
         id="path8066"
         inkscape:connector-curvature="0" />
    </g>
  </g>
</svg>
