<?xml version="1.0" encoding="UTF-8"?>
<svg width="186px" height="16px" viewBox="0 0 186 16" version="1.1" xmlns="http://www.w3.org/2000/svg" xmlns:xlink="http://www.w3.org/1999/xlink">
    <!-- Generator: sketchtool 48.2 (47327) - http://www.bohemiancoding.com/sketch -->
    <title>D288419F-FF5B-4FAD-8C3C-2808AF3CC4E8</title>
    <desc>Created with sketchtool.</desc>
    <defs>
        <polygon id="path-1" points="0 0 186 0 186 16 0 16"></polygon>
    </defs>
    <g id="NAVIGATION-1.0" stroke="none" stroke-width="1" fill="none" fill-rule="evenodd" transform="translate(-835.000000, -139.000000)">
        <g id="Navigation">
            <g id="nav-bar-white" transform="translate(415.000000, 90.000000)">
                <g id="NITTO-LOGO" transform="translate(420.000000, 49.000000)">
                    <mask id="mask-2" fill="white">
                        <use xlink:href="#path-1"></use>
                    </mask>
                    <g id="Clip-2"></g>
                    <path d="M183.313092,2.65021556 L182.974942,2.65021556 L182.974942,1.61437633 C183.06378,1.60322829 183.165682,1.59022224 183.313092,1.59022224 C183.823474,1.59022224 184.012254,1.8508078 184.012254,2.12254141 C184.012254,2.50598772 183.689564,2.65021556 183.313092,2.65021556 Z M183.930384,2.8450741 L183.930384,2.81464923 C184.234784,2.72314236 184.49237,2.47742085 184.49237,2.07609122 C184.49237,1.78159702 184.397218,1.57907419 184.229994,1.43879462 C184.059504,1.30269556 183.771434,1.20747267 183.334866,1.20747267 C182.997152,1.20747267 182.765912,1.24440057 182.520084,1.27714796 L182.520084,4.34169921 L182.974942,4.34169921 L182.974942,3.02808785 L183.299592,3.02808785 C183.65625,3.02808785 183.85178,3.17254794 183.92211,3.56040702 C183.977416,3.96684618 184.04252,4.24647632 184.112632,4.34169921 L184.589264,4.34169921 C184.547676,4.24647632 184.475822,4.06578508 184.410282,3.58432887 C184.355194,3.13515554 184.181438,2.89152429 183.930384,2.8450741 Z M183.468558,5.07050268 C182.329126,5.07050268 181.402426,4.04604375 181.402426,2.74729645 C181.402426,1.46829049 182.329126,0.430825507 183.468558,0.430825507 C184.616264,0.430825507 185.531424,1.46829049 185.531424,2.75658649 C185.531424,4.04604375 184.616264,5.08420548 183.468558,5.07050268 Z M183.468558,0 C182.056516,0 180.914036,1.22024648 180.914036,2.74729645 C180.914036,4.29664252 182.056516,5.50318619 183.468558,5.50318619 C184.88256,5.50318619 186,4.29664252 186,2.74729645 C186,1.22024648 184.88256,0 183.468558,0 Z M139.535219,4.49150107 L141.974557,0.763641114 L75.5735299,0.763641114 L73.1522644,4.47292099 L73.1533531,4.47292099 L139.525203,4.49150107 L139.535219,4.49150107 Z M53.0328986,4.47292099 L53.0503178,4.47292099 L68.9956136,4.49150107 L69.0021458,4.49150107 L71.4173145,0.763641114 L55.4297772,0.763641114 L53.0328986,4.47292099 Z M48.8692801,4.49150107 L51.2829246,0.763641114 L35.3156371,0.763641114 L32.9172343,4.47292099 L48.8629656,4.49150107 L48.8692801,4.49150107 Z M113.009734,6.2152676 L106.717492,15.9756137 L122.686304,15.9756137 L127.196782,9.16044186 L119.231428,6.2152676 L113.009734,6.2152676 Z M82.4830637,6.2152676 L76.4717061,15.5489687 L76.1938703,15.9756137 L92.1572385,15.9756137 L96.6725066,9.16044186 L88.7075885,6.2152676 L82.4830637,6.2152676 Z M6.31684638,6.2152676 L0,15.9756137 L15.9688117,15.9756137 L20.7333918,8.61720689 L25.485343,15.9577303 L25.4692302,15.9756137 L41.4297678,15.9756137 L47.7546706,6.2152676 L6.31684638,6.2152676 Z M179.926587,4.37444659 C179.913522,4.31777736 179.885216,4.27132717 179.868232,4.21976746 L179.818152,4.0590498 L179.806394,4.0590498 C178.652156,1.19539562 173.02402,0.763641114 161.555671,0.763641114 C151.033617,0.763641114 144.457008,2.19662946 142.103241,4.47292099 L179.95032,4.47292099 C179.938562,4.44017361 179.937038,4.40417471 179.926587,4.37444659 Z M164.456399,7.35190373 L163.071139,9.76243631 C162.149447,11.3668259 159.414201,12.5715115 156.962887,12.4514378 C154.543581,12.312784 153.322497,10.9380906 154.235915,9.3429911 L155.624441,6.93176177 C155.768585,6.67930499 155.964115,6.44682179 156.188387,6.22269963 L156.126767,6.22269963 C156.130033,6.21782236 156.133299,6.2152676 156.133299,6.2152676 L140.622611,6.2152676 C140.5255,6.34463137 140.430347,6.47747892 140.336719,6.61311347 C140.262905,6.70972986 140.196059,6.81238478 140.127254,6.91573645 C140.104391,6.94848384 140.080657,6.98448273 140.059101,7.01583661 C139.990295,7.1229043 139.921925,7.22927523 139.855079,7.33587842 C139.83287,7.36792905 139.814579,7.39951518 139.796289,7.43179806 C139.729225,7.54234951 139.665645,7.64825594 139.600541,7.75903964 C139.582251,7.79109027 139.562001,7.8222119 139.546977,7.85240452 C139.483397,7.96504623 139.423083,8.07095266 139.366253,8.18777489 C139.347963,8.21750301 139.332939,8.24908914 139.316173,8.27881726 C139.257601,8.39215572 139.20382,8.50386843 139.150691,8.62092291 C139.138933,8.64948977 139.125433,8.67410837 139.111933,8.70453325 C139.058369,8.82019422 139.005023,8.93631969 138.959733,9.04965816 C138.948193,9.07520576 138.938177,9.10493388 138.929685,9.13071374 C138.879387,9.24637471 138.836057,9.36598395 138.794033,9.48907695 C138.784017,9.50881828 138.777268,9.52739835 138.770953,9.5508557 C138.728929,9.67278745 138.692131,9.79889971 138.656857,9.92013471 C138.653809,9.93453426 138.648583,9.94754032 138.647059,9.95799161 C138.382505,10.9325166 138.360949,11.8884615 138.718913,12.7429127 C138.723921,12.7545253 138.725663,12.7652088 138.730453,12.7770536 C138.795775,12.92732 138.867847,13.0757283 138.956467,13.2169369 C140.530725,15.7572978 151.402033,16 156.282015,16 C161.162215,16 172.963707,15.1241817 175.774508,12.8302391 C178.027896,10.983844 179.889789,8.68455967 180.092504,6.22269963 C180.092504,6.22269963 180.092504,6.23500893 180.090762,6.2412797 C180.092504,6.23129291 180.094246,6.22269963 180.094246,6.21782236 L180.094246,6.2152676 L164.755791,6.2152676 C164.779525,6.56968254 164.687203,6.95521911 164.456399,7.35190373 Z M27.7977386,0.763641114 L9.84749558,0.763641114 L7.44822185,4.47292099 L30.5308072,4.47292099 L27.7977386,0.763641114 Z M45.5824993,15.9756137 L61.5415128,15.9756137 L61.5648109,15.941705 L67.8661978,6.2152676 L51.9019586,6.2152676 L45.5824993,15.9756137 Z" id="Fill-1" fill="#231F20" mask="url(#mask-2)"></path>
                </g>
            </g>
        </g>
    </g>
</svg>