<?xml version="1.0" encoding="UTF-8" standalone="no"?>
<!-- Created with Inkscape (http://www.inkscape.org/) -->

<svg
   width="119.0625mm"
   height="15.143691mm"
   viewBox="0 0 119.0625 15.143691"
   version="1.1"
   id="svg1"
   inkscape:version="1.3.2 (091e20e, 2023-11-25, custom)"
   sodipodi:docname="Uniroyal Logo vector.svg"
   xmlns:inkscape="http://www.inkscape.org/namespaces/inkscape"
   xmlns:sodipodi="http://sodipodi.sourceforge.net/DTD/sodipodi-0.dtd"
   xmlns="http://www.w3.org/2000/svg"
   xmlns:svg="http://www.w3.org/2000/svg">
  <sodipodi:namedview
     id="namedview1"
     pagecolor="#ffffff"
     bordercolor="#666666"
     borderopacity="1.0"
     inkscape:showpageshadow="2"
     inkscape:pageopacity="0.0"
     inkscape:pagecheckerboard="0"
     inkscape:deskcolor="#d1d1d1"
     inkscape:document-units="mm"
     inkscape:zoom="1.0289352"
     inkscape:cx="224.50394"
     inkscape:cy="28.670416"
     inkscape:window-width="2482"
     inkscape:window-height="1411"
     inkscape:window-x="-9"
     inkscape:window-y="-9"
     inkscape:window-maximized="1"
     inkscape:current-layer="layer1" />
  <defs
     id="defs1" />
  <g
     inkscape:label="Livello 1"
     inkscape:groupmode="layer"
     id="layer1"
     transform="translate(-45.508333,-141.02292)">
    <g
       id="g98"
       transform="matrix(0.26458333,0,0,0.26458333,38.89375,82.448933)">
	<polygon
   style="clip-rule:evenodd;fill:#ec1c24;fill-rule:evenodd"
   points="79.023,278.618 25,278.618 48.361,221.382 104.137,221.382 "
   id="polygon92" />

	<polygon
   style="clip-rule:evenodd;fill:#ec1c24;fill-rule:evenodd"
   points="449.887,278.618 395.863,278.618 419.225,221.382 475,221.382 "
   id="polygon93" />

	<path
   style="clip-rule:evenodd;fill:#231f20;fill-rule:evenodd"
   d="m 112.605,226.931 h 14.893 l -15.769,37.962 c 0,0 -1.752,4.088 0.876,4.381 2.628,0.292 4.672,0.292 6.717,-4.381 2.044,-4.964 15.769,-37.962 15.769,-37.962 h 13.724 l -14.6,36.502 c 0,0 -3.796,14.017 -23.069,13.725 0,0 -7.885,0.584 -11.389,-2.044 -3.796,-2.92 -3.504,-6.717 -2.336,-10.221 0.876,-3.212 15.184,-37.962 15.184,-37.962 z"
   id="path93" />

	<polygon
   style="clip-rule:evenodd;fill:#231f20;fill-rule:evenodd"
   points="135.091,276.282 154.948,226.931 174.221,226.931 169.257,262.848 183.858,226.931 194.955,226.931 175.098,276.282 156.993,276.282 162.832,234.815 145.895,276.282 "
   id="polygon94" />

	<polygon
   style="clip-rule:evenodd;fill:#231f20;fill-rule:evenodd"
   points="195.538,276.282 180.938,276.282 201.087,226.931 215.396,226.931 "
   id="polygon95" />

	<path
   style="clip-rule:evenodd;fill:#231f20;fill-rule:evenodd"
   d="m 243.138,226.931 h -21.025 l -20.149,49.351 h 14.309 l 9.052,-22.777 c 0.292,0 0.876,0.292 3.212,0.292 3.505,0.293 2.628,4.088 2.628,4.088 0,0 -4.38,11.389 -4.964,12.557 -0.876,2.044 -0.292,5.84 -0.292,5.84 h 14.309 c -0.876,-0.876 0,-4.964 0,-4.964 0,0 4.673,-10.22 5.84,-15.185 1.168,-4.964 -3.212,-5.549 -3.504,-5.841 0,-0.292 -4.673,-0.584 -4.673,-0.584 10.512,-1.46 14.309,-5.84 16.645,-14.6 2.045,-8.469 -11.388,-8.177 -11.388,-8.177 z m -3.797,9.928 c -0.876,3.213 -1.752,6.717 -4.088,8.177 -2.044,1.168 -3.504,1.752 -7.008,1.46 l 5.256,-12.556 c 0,-0.001 6.716,-0.293 5.84,2.919 z"
   id="path95" />

	<path
   style="clip-rule:evenodd;fill:#231f20;fill-rule:evenodd"
   d="m 280.808,226.055 c -18.398,0 -22.193,13.141 -22.193,13.141 0,0 -9.345,22.193 -10.513,25.99 -1.168,3.796 -2.336,12.556 12.557,11.973 20.733,0 24.237,-13.725 24.237,-13.725 0,0 9.053,-21.901 9.929,-25.113 1.168,-3.214 4.38,-12.266 -14.017,-12.266 z m 0.584,11.097 c -0.876,3.504 -11.681,28.325 -11.681,28.325 0,0 -0.876,4.38 -5.84,3.796 -3.212,0 -2.044,-2.337 -2.044,-3.213 0.292,-0.875 11.681,-28.909 11.681,-28.909 0,0 2.044,-3.505 4.672,-3.212 2.628,0 3.796,-0.292 3.212,3.213 z"
   id="path96" />

	<polygon
   style="clip-rule:evenodd;fill:#231f20;fill-rule:evenodd"
   points="313.514,226.931 310.886,246.496 324.026,226.931 338.043,226.931 313.222,258.177 305.921,276.282 291.613,276.282 298.913,258.177 299.205,226.931 "
   id="polygon96" />

	<path
   style="clip-rule:evenodd;fill:#231f20;fill-rule:evenodd"
   d="m 344.468,226.931 -30.078,49.351 h 11.973 l 7.3,-11.973 h 7.593 l -3.213,11.973 h 14.309 l 11.681,-49.351 z m -1.168,29.785 h -5.257 l 11.389,-22.193 z"
   id="path97" />

	<polygon
   style="clip-rule:evenodd;fill:#231f20;fill-rule:evenodd"
   points="386.518,276.282 356.733,276.282 376.59,226.931 391.191,226.931 373.962,268.689 389.439,268.689 "
   id="polygon97" />

	<path
   style="clip-rule:evenodd;fill:#231f20;fill-rule:evenodd"
   d="m 396.739,234.523 h -0.875 v -5.256 h 2.336 c 1.168,0 1.752,0.292 1.752,1.46 0,0.876 -0.584,1.46 -1.46,1.46 l 1.752,2.336 h -1.168 l -1.46,-2.336 h -0.876 v 2.336 z m 1.168,-2.92 c 0.584,0 1.168,0 1.168,-0.876 0,-0.876 -0.584,-0.876 -1.168,-0.876 h -1.169 v 1.752 z m 0,5.256 c -2.92,0 -4.964,-2.336 -4.964,-4.964 0,-3.212 2.336,-4.964 4.964,-4.964 2.628,0 4.964,1.752 4.964,4.964 0.001,2.92 -2.336,4.964 -4.964,4.964 z m 0,-9.053 c -2.337,0 -3.796,1.46 -3.796,4.088 0,2.045 1.46,4.089 3.796,4.089 2.044,0 3.796,-1.752 3.796,-4.089 0,-2.627 -1.751,-4.088 -3.796,-4.088 z"
   id="path98" />

</g>
  </g>
</svg>
